HIERARCHY
ROOT joint_Root
{
	OFFSET 0.0 0.0 0.0
	CHANNELS 6 Xposition Yposition Zposition Zrotation Xrotation Yrotation 
	JOINT Hips
	{
		OFFSET 4.5925 91.4895 -427.239
		CHANNELS 6 Xposition Yposition Zposition Zrotation Xrotation Yrotation 
		JOINT Spine
		{
			OFFSET 15.7357 0.0 0.0
			CHANNELS 6 Xposition Yposition Zposition Zrotation Xrotation Yrotation 
			JOINT Chest
			{
				OFFSET 8.98455 -0.406207 0.0
				CHANNELS 6 Xposition Yposition Zposition Zrotation Xrotation Yrotation 
				JOINT Neck
				{
					OFFSET 16.3773 0.0 0.0
					CHANNELS 6 Xposition Yposition Zposition Zrotation Xrotation Yrotation 
					JOINT Head
					{
						OFFSET 6.45672 0.0 0.0
						CHANNELS 6 Xposition Yposition Zposition Zrotation Xrotation Yrotation 
						End Site
						{
							OFFSET 0.0 0.0 0.0
						}
					}
				}
				JOINT Shoulder_L
				{
					OFFSET 12.9942 -0.242716 4.98039
					CHANNELS 6 Xposition Yposition Zposition Zrotation Xrotation Yrotation 
					JOINT UpperArm_L
					{
						OFFSET 5.34809 0.0 0.0
						CHANNELS 6 Xposition Yposition Zposition Zrotation Xrotation Yrotation 
						JOINT LowerArm_L
						{
							OFFSET 24.3286 1.87007e-05 0.0
							CHANNELS 6 Xposition Yposition Zposition Zrotation Xrotation Yrotation 
							JOINT Hand_L
							{
								OFFSET 22.2916 0.0 0.0
								CHANNELS 6 Xposition Yposition Zposition Zrotation Xrotation Yrotation 
								End Site
								{
									OFFSET 0.0 0.0 0.0
								}
							}
						}
					}
				}
				JOINT Shoulder_R
				{
					OFFSET 12.9945 -0.242716 -4.98039
					CHANNELS 6 Xposition Yposition Zposition Zrotation Xrotation Yrotation 
					JOINT UpperArm_R
					{
						OFFSET -5.34813 0.0 0.0
						CHANNELS 6 Xposition Yposition Zposition Zrotation Xrotation Yrotation 
						JOINT LowerArm_R
						{
							OFFSET -24.3289 0.000322201 0.0
							CHANNELS 6 Xposition Yposition Zposition Zrotation Xrotation Yrotation 
							JOINT Hand_R
							{
								OFFSET -22.2915 -0.000108084 0.0
								CHANNELS 6 Xposition Yposition Zposition Zrotation Xrotation Yrotation 
								End Site
								{
									OFFSET 0.0 0.0 0.0
								}
							}
						}
					}
				}
			}
		}
		JOINT UpperLeg_L
		{
			OFFSET -2.19248 -6.46944 0.0
			CHANNELS 6 Xposition Yposition Zposition Zrotation Xrotation Yrotation 
			JOINT LowerLeg_L
			{
				OFFSET 39.0811 0.0 -1.23785e-05
				CHANNELS 6 Xposition Yposition Zposition Zrotation Xrotation Yrotation 
				JOINT Foot_L
				{
					OFFSET 40.9854 0.0 -1.26872e-05
					CHANNELS 6 Xposition Yposition Zposition Zrotation Xrotation Yrotation 
					JOINT Toes_L
					{
						OFFSET 11.7543 0.0 0.0
						CHANNELS 6 Xposition Yposition Zposition Zrotation Xrotation Yrotation 
						End Site
						{
							OFFSET 0.0 0.0 0.0
						}
					}
				}
			}
		}
		JOINT UpperLeg_R
		{
			OFFSET -2.19251 6.46944 0.0
			CHANNELS 6 Xposition Yposition Zposition Zrotation Xrotation Yrotation 
			JOINT LowerLeg_R
			{
				OFFSET -39.0811 -0.00228153 -0.0401928
				CHANNELS 6 Xposition Yposition Zposition Zrotation Xrotation Yrotation 
				JOINT Foot_R
				{
					OFFSET -40.9854 0.0 0.0
					CHANNELS 6 Xposition Yposition Zposition Zrotation Xrotation Yrotation 
					JOINT Toes_R
					{
						OFFSET -11.7543 0.0 0.0
						CHANNELS 6 Xposition Yposition Zposition Zrotation Xrotation Yrotation 
						End Site
						{
							OFFSET 0.0 0.0 0.0
						}
					}
				}
			}
		}
	}
}
MOTION
Frames:	4
Frame Time:	0.0333333
0.000000 0.000000 0.000000 0.000000 0.000000 -0.000000 -95.387300 89.998500 176.799000 78.845200 83.801300 12.061600 15.735700 0.000005 -0.000001 82.896200 80.842900 -83.426900 8.984550 -0.406207 -0.000000 10.403200 -2.261750 -0.854891 16.377300 -0.000001 -0.000001 -0.291676 -2.442750 0.255490 6.456720 -0.000001 -0.000000 -1.505260 -1.316630 3.761490 12.994200 -0.242716 4.980390 -90.532600 1.849800 -73.933400 5.348090 -0.000007 -0.000001 -61.634600 22.833300 -20.639600 24.328600 0.000019 0.000005 8.937720 12.917400 -35.127900 22.291600 -0.000001 0.000005 14.205500 5.274050 0.787675 12.994500 -0.242716 -4.980390 88.181500 9.401490 -79.001200 -5.348130 -0.000001 -0.000004 -67.084100 30.675700 -5.180460 -24.328900 0.000322 -0.000009 0.330586 0.848597 -21.347200 -22.291500 -0.000108 -0.000004 14.011300 5.355760 -1.550880 -2.192480 -6.469440 -0.000000 -176.567000 -6.622510 -11.000800 39.081100 -0.000007 -0.000012 -0.262285 0.374545 35.003100 40.985400 -0.000006 -0.000013 -0.961321 0.544385 -73.197700 11.754300 -0.000000 0.000003 -0.000282 -0.002473 -16.669900 -2.192510 6.469440 -0.000001 -176.911000 15.509200 153.934000 -39.081100 -0.002282 -0.040193 0.074315 -0.057141 51.201000 -40.985400 0.000008 0.000006 3.000190 0.667807 -63.442300 -11.754300 -0.000006 -0.000006 -0.012683 -0.122695 -21.575800
0.000000 0.000000 0.000000 0.000000 0.000000 -0.000000 -93.518500 90.033000 176.877000 79.323100 83.551000 11.103900 15.735700 0.000005 -0.000001 82.171100 80.871800 -82.583500 8.984550 -0.406207 -0.000000 10.318500 -2.479410 -0.600540 16.377300 -0.000001 -0.000001 -0.614811 -2.108670 0.315829 6.456720 -0.000001 -0.000000 -2.232300 -0.813138 4.178080 12.994200 -0.242716 4.980390 -90.500500 1.744990 -73.994300 5.348090 -0.000007 -0.000001 -61.075200 22.391200 -20.583600 24.328600 0.000019 0.000005 9.515430 12.577700 -37.586200 22.291600 -0.000001 0.000005 14.607300 5.270230 0.892256 12.994500 -0.242716 -4.980390 88.134700 9.545380 -78.889300 -5.348130 -0.000001 -0.000004 -66.554100 30.612500 -5.537170 -24.328900 0.000322 -0.000009 0.250968 0.632590 -21.723600 -22.291500 -0.000108 -0.000004 14.244200 5.358090 -1.621270 -2.192480 -6.469440 -0.000000 -176.577000 -6.644400 -9.440870 39.081100 -0.000007 -0.000012 -0.284600 0.425231 33.794300 40.985400 -0.000006 -0.000013 -1.093610 0.290973 -74.019300 11.754300 -0.000000 0.000003 -0.000259 -0.002297 -16.663500 -2.192510 6.469440 -0.000001 -175.749000 16.374100 153.304000 -39.081100 -0.002282 -0.040193 0.044254 -0.045131 42.241300 -40.985400 0.000008 0.000006 1.624790 3.053250 -62.503600 -11.754300 -0.000006 -0.000006 -0.012817 -0.123601 -21.612900
0.000000 0.000000 0.000000 0.000000 0.000000 -0.000000 -91.587400 89.901400 177.101000 78.739600 83.493500 11.087700 15.735700 0.000005 -0.000001 81.091100 80.915400 -81.347200 8.984550 -0.406207 -0.000000 10.186700 -2.800830 -0.262143 16.377300 -0.000001 -0.000001 -0.885247 -1.622960 0.420138 6.456720 -0.000001 -0.000000 -3.116640 -0.017170 4.600750 12.994200 -0.242716 4.980390 -90.474800 1.661800 -74.053900 5.348090 -0.000007 -0.000001 -60.751600 21.809700 -19.896900 24.328600 0.000019 0.000005 10.185400 12.294500 -40.156000 22.291600 -0.000001 0.000005 15.032500 5.271750 0.850867 12.994500 -0.242716 -4.980390 88.096600 9.596200 -78.725700 -5.348130 -0.000001 -0.000004 -66.144700 30.539700 -6.349580 -24.328900 0.000322 -0.000009 0.175893 0.435961 -22.092900 -22.291500 -0.000108 -0.000004 14.557500 5.361310 -1.719600 -2.192480 -6.469440 -0.000000 -176.436000 -6.552000 -8.249490 39.081100 -0.000007 -0.000012 -0.292844 0.448540 33.140400 40.985400 -0.000006 -0.000013 -1.309790 0.106048 -75.140100 11.754300 -0.000000 0.000003 -0.000261 -0.002318 -16.664300 -2.192510 6.469440 -0.000001 -174.515000 16.243900 152.781000 -39.081100 -0.002282 -0.040193 0.021749 -0.027553 33.814500 -40.985400 0.000008 0.000006 1.156160 3.593710 -61.999400 -11.754300 -0.000006 -0.000006 -0.013143 -0.125787 -21.702500
0.000000 0.000000 0.000000 0.000000 0.000000 -0.000000 -89.408200 89.637100 177.533000 74.051700 83.487600 15.296100 15.735700 0.000005 -0.000001 80.266500 80.879100 -80.188900 8.984550 -0.406207 -0.000000 10.226100 -3.062190 0.429300 16.377300 -0.000001 -0.000001 -1.106000 -1.146030 0.550627 6.456720 -0.000001 -0.000000 -4.004520 0.810749 4.815480 12.994200 -0.242716 4.980390 -90.480300 1.692430 -74.154300 5.348090 -0.000007 -0.000001 -60.685700 21.004400 -18.774800 24.328600 0.000019 0.000005 10.853300 12.051800 -42.559100 22.291600 -0.000001 0.000005 15.198700 5.276400 0.724634 12.994500 -0.242716 -4.980390 88.083100 9.677280 -78.739600 -5.348130 -0.000001 -0.000004 -65.735500 30.354200 -7.485150 -24.328900 0.000322 -0.000009 0.092077 0.223792 -22.599000 -22.291500 -0.000108 -0.000004 14.858800 5.360630 -1.698800 -2.192480 -6.469440 -0.000000 -175.664000 -6.262760 -6.920210 39.081100 -0.000007 -0.000012 -0.320678 0.496053 32.881700 40.985400 -0.000006 -0.000013 -1.691820 -0.041466 -76.640100 11.754300 -0.000000 0.000003 -0.000277 -0.002437 -16.668600 -2.192510 6.469440 -0.000001 -172.407000 16.232000 151.534000 -39.081100 -0.002282 -0.040193 0.039199 -0.062352 29.930100 -40.985400 0.000008 0.000006 6.087050 3.093980 -60.326900 -11.754300 -0.000006 -0.000006 -0.013232 -0.126380 -21.726900
